<svg xmlns="http://www.w3.org/2000/svg" xmlns:xlink="http://www.w3.org/1999/xlink" style="vertical-align:-.63ex" width="19.93ex" height="2.384ex" viewBox="0 -755.5 8580.8 1026.6"><defs><path id="a" stroke-width="1" d="M0 673q0 11 7 16t13 5q12 0 18-14t44-113l44-116h304l43 115q10 27 21 56t18 46 7 17q5 9 19 9 18-2 18-20 0-4-130-345T293-15q-5-7-15-7t-15 7q-3 4-132 343T0 673zm414-263q0 1-136 1t-136-1L278 55l136 355z"/><path id="b" stroke-width="1" d="M21 287q1 6 3 16t12 38 20 47 33 37 46 17q36 0 60-18t30-34 6-21q0-2 1-2l11 11q61 64 139 64 54 0 87-27t34-79-38-157-38-127q0-26 17-26 6 0 9 1 29 5 52 38t35 80q2 8 20 8 20 0 20-8 0-1-4-15-8-29-22-57t-46-56-69-27q-47 0-68 27t-21 56q0 19 36 120t37 152q0 59-44 59h-5q-86 0-145-101l-7-12-33-134Q156 26 151 16q-13-27-43-27-13 0-21 6T76 7t-2 10q0 13 38 163t40 163q1 5 1 23 0 39-24 39-38 0-63-100-6-20-6-21-2-6-19-6H27q-6 6-6 9z"/><path id="c" stroke-width="1" d="M84 250q0 122 82 200t194 89h17q16 0 42 1t50 0h99q15-8 15-20 0-9-13-19l-104-1q-111-1-137-6-49-12-87-36t-59-49-36-55-18-48-5-34v-2h444q15-8 15-20t-15-20H124v-2q0-21 10-51t33-65 64-64 97-41q27-6 138-7h104q13-10 13-20 0-12-15-20H446q-18 0-29-1-155 0-245 86-88 82-88 205z"/><path id="d" stroke-width="1" d="M234 637h-8q-25 0-30 1t-5 11q0 27 11 33 2 1 97 1h88q11 0 14-6 211-496 215-509l54 213q53 211 53 225 0 27-64 31-24 0-24 11 0 2 2 12 4 16 6 19t10 4q3 0 31-1t83-2q50 0 76 1t30 1q15 0 15-10 0-22-8-30-2-5-22-5-71-4-89-40L620 7q-2-7-21-7-14 0-17 2-3 3-129 303L326 604l-65-260Q196 88 196 79q5-33 72-33h10q6-5 6-8t-2-19q-4-13-10-19h-13q-31 2-108 2H63Q49 2 46 1q-15 0-15 9 0 4 3 16t5 14q2 6 23 6 68 3 88 39 4 6 71 277l68 272q-2 1-55 3z"/><path id="e" stroke-width="1" d="M56 237v13l14 20h299v150l1 150q10 13 19 13 13 0 20-15V270h298q15-8 15-20t-15-20H409V-68q-8-14-18-14h-4q-12 0-18 14v298H70q-14 7-14 20z"/><path id="f" stroke-width="1" d="M56 237v13l14 20h765q-116 87-143 223v3q0 2-1 3 0 12 17 12h3q9 0 12-1t6-4 3-9 3-16 8-25q22-67 73-120t119-75q9-3 9-11 0-6-5-9t-24-10-38-19q-41-26-71-60t-45-67-21-50-8-31q-2-10-5-12t-16-3q-20 0-20 11 0 7 5 25 32 126 139 205H70q-14 7-14 20z"/><path id="g" stroke-width="1" d="M52 289q7 42 54 97t116 56q35 0 64-18t43-45q42 63 101 63 37 0 64-22t28-59q0-29-14-47t-27-22-23-4q-19 0-31 11t-12 29q0 46 50 63-11 13-40 13-13 0-19-2-38-16-56-66-60-221-60-258 0-28 16-40t35-12q37 0 73 33t49 81q3 10 6 11t16 2h4q15 0 15-8 0-1-2-11-16-57-62-101T333-11q-70 0-106 63-41-62-94-62h-6q-49 0-70 26T35 71q0 32 19 52t45 20q43 0 43-42 0-20-12-35t-23-20-13-5l-3-1q0-1 6-4t16-7 19-3q36 0 62 45 9 16 23 68t28 108 16 66q5 27 5 39 0 28-15 40t-34 12q-40 0-75-32t-49-82q-2-9-5-10t-16-2H58q-6 6-6 11z"/><path id="h" stroke-width="1" d="M674 636q8 0 14-6t6-15-7-14q-1-1-270-129L151 346l248-118Q687 92 691 87q3-6 3-11 0-18-18-20h-6L382 192Q92 329 90 331q-7 5-7 17 1 11 13 17 8 4 286 135t283 134q4 2 9 2zM84-118q0 10 15 20h579q16-6 16-20 0-12-15-20H98q-14 7-14 20z"/><path id="i" stroke-width="1" d="M231 637q-27 0-32 1t-5 11q0 27 11 33 1 1 130 1 259 0 273-2 63-10 105-45t43-92q0-64-58-115t-133-69l-10-3q64-9 105-46t42-92q0-73-72-141T453 1q-7-1-211-1Q42 0 39 2q-4 3-4 8 0 7 2 14 5 19 10 21 4 1 15 1h6q27 0 60 3 14 3 19 12 3 4 72 278t69 289q0 7-57 9zm418-93q0 30-15 56t-49 34q-7 2-92 3h-42q-22 0-35-1h-13q-15-1-19-10-2-4-32-120 0-3-1-6l-31-126h81q81 0 93 2 60 10 107 58t48 110zm-54-315q0 44-23 73t-60 34q-6 1-83 1-118 0-119-1 0-2-17-73t-35-141l-18-70q0-4 12-4t81-2q89 0 96 1 62 7 114 58t52 124z"/></defs><g fill="currentColor" stroke="currentColor" stroke-width="0" transform="scale(1 -1)"><use xlink:href="#a"/><use x="556" xlink:href="#b"/><use x="1434" xlink:href="#c"/><g transform="translate(2380)"><use xlink:href="#d"/><use x="1136" y="-213" transform="scale(.707)" xlink:href="#e"/></g><use x="4111" xlink:href="#f"/><g transform="translate(5390)"><use xlink:href="#g"/><use x="809" y="-213" transform="scale(.707)" xlink:href="#b"/></g><use x="6764" xlink:href="#h"/><use x="7821" xlink:href="#i"/></g></svg>